<svg width="76" height="76" viewBox="0 0 76 76" fill="none" xmlns="http://www.w3.org/2000/svg">
<path d="M41.7994 11.4004C40.7916 11.4004 39.8251 11.8007 39.1124 12.5134C38.3998 13.226 37.9994 14.1926 37.9994 15.2004C37.9994 16.2082 38.3998 17.1748 39.1124 17.8874C39.8251 18.6 40.7916 19.0004 41.7994 19.0004H51.6262L27.7128 42.9138C27.3499 43.2643 27.0604 43.6836 26.8612 44.1473C26.6621 44.6109 26.5573 45.1095 26.5529 45.6141C26.5485 46.1186 26.6446 46.619 26.8357 47.086C27.0268 47.553 27.3089 47.9773 27.6657 48.3341C28.0225 48.6909 28.4468 48.973 28.9138 49.1641C29.3808 49.3552 29.8812 49.4513 30.3858 49.4469C30.8903 49.4426 31.389 49.3377 31.8526 49.1386C32.3162 48.9394 32.7355 48.6499 33.086 48.287L56.9994 24.3736V34.2004C56.9994 35.2082 57.3998 36.1748 58.1124 36.8874C58.8251 37.6 59.7916 38.0004 60.7994 38.0004C61.8073 38.0004 62.7738 37.6 63.4864 36.8874C64.1991 36.1748 64.5994 35.2082 64.5994 34.2004V15.2004C64.5994 14.1926 64.1991 13.226 63.4864 12.5134C62.7738 11.8007 61.8073 11.4004 60.7994 11.4004H41.7994Z" fill="black"/>
<path d="M19.0004 19C16.9847 19 15.0517 19.8007 13.6264 21.226C12.2011 22.6513 11.4004 24.5844 11.4004 26.6V57C11.4004 59.0156 12.2011 60.9487 13.6264 62.374C15.0517 63.7993 16.9847 64.6 19.0004 64.6H49.4004C51.416 64.6 53.3491 63.7993 54.7744 62.374C56.1997 60.9487 57.0004 59.0156 57.0004 57V45.6C57.0004 44.5922 56.6 43.6256 55.8874 42.913C55.1748 42.2004 54.2082 41.8 53.2004 41.8C52.1926 41.8 51.226 42.2004 50.5134 42.913C49.8007 43.6256 49.4004 44.5922 49.4004 45.6V57H19.0004V26.6H30.4004C31.4082 26.6 32.3748 26.1996 33.0874 25.487C33.8 24.7744 34.2004 23.8078 34.2004 22.8C34.2004 21.7922 33.8 20.8256 33.0874 20.113C32.3748 19.4004 31.4082 19 30.4004 19H19.0004Z" fill="black"/>
</svg>
