<svg width="76" height="76" viewBox="0 0 76 76" fill="none" xmlns="http://www.w3.org/2000/svg">
<path d="M47.5 38C47.5 40.5196 46.4991 42.9359 44.7175 44.7175C42.9359 46.4991 40.5196 47.5 38 47.5C35.4804 47.5 33.0641 46.4991 31.2825 44.7175C29.5009 42.9359 28.5 40.5196 28.5 38C28.5 35.4804 29.5009 33.0641 31.2825 31.2825C33.0641 29.5009 35.4804 28.5 38 28.5C40.5196 28.5 42.9359 29.5009 44.7175 31.2825C46.4991 33.0641 47.5 35.4804 47.5 38Z" fill="black"/>
<path d="M69.3319 36.5852C62.4982 22.9147 50.3636 15.834 38.0009 15.834C25.6414 15.834 13.5036 22.9147 6.66991 36.5852C6.45028 37.0247 6.33594 37.5093 6.33594 38.0006C6.33594 38.492 6.45028 38.9766 6.66991 39.4161C13.5036 53.0866 25.6382 60.1673 38.0009 60.1673C50.3604 60.1673 62.4982 53.0866 69.3319 39.4161C69.5515 38.9766 69.6659 38.492 69.6659 38.0006C69.6659 37.5093 69.5515 37.0247 69.3319 36.5852ZM38.0009 53.834C28.5991 53.834 18.9946 48.704 13.0792 38.0006C18.9946 27.2973 28.5959 22.1673 38.0009 22.1673C47.4027 22.1673 57.0073 27.2973 62.9226 38.0006C57.0073 48.704 47.4027 53.834 38.0009 53.834Z" fill="black"/>
</svg>
