<svg width="25" height="24" viewBox="0 0 25 24" fill="none" xmlns="http://www.w3.org/2000/svg">
<path opacity="0.16" d="M4.5 4.00195H20.5V18.002C20.5 18.5324 20.2893 19.0411 19.9142 19.4162C19.5391 19.7912 19.0304 20.002 18.5 20.002H6.5C5.96957 20.002 5.46086 19.7912 5.08579 19.4162C4.71071 19.0411 4.5 18.5324 4.5 18.002V4.00195Z" fill="#2EB85C"/>
<path d="M11.5 4H4.5V18C4.5 18.5304 4.71071 19.0391 5.08579 19.4142C5.46086 19.7893 5.96957 20 6.5 20H18.5C19.0304 20 19.5391 19.7893 19.9142 19.4142C20.2893 19.0391 20.5 18.5304 20.5 18V13M9.5 15L20.5 4M20.5 4H15.5M20.5 4V9" stroke="#2EB85C" stroke-width="2" stroke-linecap="round" stroke-linejoin="round"/>
</svg>
