<svg width="96" height="96" viewBox="0 0 96 96" fill="none" xmlns="http://www.w3.org/2000/svg">
<g clip-path="url(#clip0_782_165)">
<path d="M51 48C51 48.7956 50.6839 49.5587 50.1213 50.1213C49.5587 50.6839 48.7956 51 48 51C47.2044 51 46.4413 50.6839 45.8787 50.1213C45.3161 49.5587 45 48.7956 45 48C45 47.2044 45.3161 46.4413 45.8787 45.8787C46.4413 45.3161 47.2044 45 48 45C48.7956 45 49.5587 45.3161 50.1213 45.8787C50.6839 46.4413 51 47.2044 51 48Z" fill="black"/>
<path d="M57.8935 47.553C55.7355 43.236 51.9035 41 47.9995 41C44.0965 41 40.2635 43.236 38.1055 47.553C38.0361 47.6918 38 47.8448 38 48C38 48.1552 38.0361 48.3082 38.1055 48.447C40.2635 52.764 44.0955 55 47.9995 55C51.9025 55 55.7355 52.764 57.8935 48.447C57.9628 48.3082 57.9989 48.1552 57.9989 48C57.9989 47.8448 57.9628 47.6918 57.8935 47.553ZM47.9995 53C45.0305 53 41.9975 51.38 40.1295 48C41.9975 44.62 45.0295 43 47.9995 43C50.9685 43 54.0015 44.62 55.8695 48C54.0015 51.38 50.9685 53 47.9995 53Z" fill="black"/>
</g>
<defs>
<clipPath id="clip0_782_165">
<rect width="96" height="96" fill="white"/>
</clipPath>
</defs>
</svg>
