<svg width="96" height="96" viewBox="0 0 96 96" fill="none" xmlns="http://www.w3.org/2000/svg">
<path d="M24 33C24 31.8181 24.2328 30.6478 24.6851 29.5558C25.1374 28.4639 25.8003 27.4718 26.636 26.636C27.4718 25.8003 28.4639 25.1374 29.5558 24.6851C30.6478 24.2328 31.8181 24 33 24C34.1819 24 35.3522 24.2328 36.4442 24.6851C37.5361 25.1374 38.5282 25.8003 39.364 26.636C40.1997 27.4718 40.8626 28.4639 41.3149 29.5558C41.7672 30.6478 42 31.8181 42 33C42 35.3869 41.0518 37.6761 39.364 39.364C37.6761 41.0518 35.3869 42 33 42C30.6131 42 28.3239 41.0518 26.636 39.364C24.9482 37.6761 24 35.3869 24 33ZM33 18C29.0218 18 25.2064 19.5804 22.3934 22.3934C19.5804 25.2064 18 29.0218 18 33C18 36.9782 19.5804 40.7936 22.3934 43.6066C25.2064 46.4196 29.0218 48 33 48C36.9782 48 40.7936 46.4196 43.6066 43.6066C46.4196 40.7936 48 36.9782 48 33C48 29.0218 46.4196 25.2064 43.6066 22.3934C40.7936 19.5804 36.9782 18 33 18ZM63 36C63 34.4087 63.6321 32.8826 64.7574 31.7574C65.8826 30.6321 67.4087 30 69 30C70.5913 30 72.1174 30.6321 73.2426 31.7574C74.3679 32.8826 75 34.4087 75 36C75 37.5913 74.3679 39.1174 73.2426 40.2426C72.1174 41.3679 70.5913 42 69 42C67.4087 42 65.8826 41.3679 64.7574 40.2426C63.6321 39.1174 63 37.5913 63 36ZM69 24C65.8174 24 62.7652 25.2643 60.5147 27.5147C58.2643 29.7652 57 32.8174 57 36C57 39.1826 58.2643 42.2348 60.5147 44.4853C62.7652 46.7357 65.8174 48 69 48C72.1826 48 75.2348 46.7357 77.4853 44.4853C79.7357 42.2348 81 39.1826 81 36C81 32.8174 79.7357 29.7652 77.4853 27.5147C75.2348 25.2643 72.1826 24 69 24ZM9 63C9 60.6131 9.94821 58.3239 11.636 56.636C13.3239 54.9482 15.6131 54 18 54H48C50.3869 54 52.6761 54.9482 54.364 56.636C56.0518 58.3239 57 60.6131 57 63V63.672C56.9937 63.9468 56.9736 64.2212 56.94 64.494C56.5981 67.4028 55.5156 70.1752 53.796 72.546C50.514 77.076 44.274 81 33 81C21.732 81 15.492 77.076 12.198 72.546C10.4806 70.1745 9.40014 67.4022 9.06 64.494C9.03013 64.2208 9.01012 63.9466 9 63.672V63ZM15 63.54V63.582L15.024 63.876C15.2564 65.7334 15.9539 67.5021 17.052 69.018C19.008 71.706 23.268 75 33 75C42.732 75 46.992 71.706 48.948 69.018C50.0461 67.5021 50.7436 65.7334 50.976 63.876C50.9868 63.7762 50.9948 63.6762 51 63.576V63C51 62.2044 50.6839 61.4413 50.1213 60.8787C49.5587 60.3161 48.7956 60 48 60H18C17.2044 60 16.4413 60.3161 15.8787 60.8787C15.3161 61.4413 15 62.2044 15 63V63.54ZM69 75C65.472 75 62.58 74.46 60.24 73.572C61.2019 71.81 61.93 69.9302 62.406 67.98C64.014 68.586 66.15 69 69 69C75.714 69 78.468 66.708 79.68 65.004C80.3884 64.0101 80.838 62.8553 80.988 61.644L81 61.476C80.9937 61.0824 80.8329 60.707 80.5523 60.4308C80.2716 60.1547 79.8937 59.9999 79.5 60H62.7C62.257 57.8242 61.3347 55.7745 60 54H79.5C83.64 54 87 57.36 87 61.5V61.602C86.9928 61.8206 86.9768 62.0387 86.952 62.256C86.6978 64.5048 85.876 66.652 84.564 68.496C82.032 72.042 77.286 75 69 75Z" fill="black"/>
</svg>
