<svg width="22" height="24" viewBox="0 0 22 24" fill="none" xmlns="http://www.w3.org/2000/svg">
<g clip-path="url(#clip0_803_194)">
<path d="M20.5872 3.17272C18.1427 -0.0205049 13.2762 -0.956098 9.77777 1.05746L3.6106 4.63712C1.92864 5.59305 0.762481 7.15916 0.42609 8.92865C0.134551 10.4134 0.381238 11.9388 1.16615 13.2609C0.627925 13.9931 0.269107 14.8066 0.112125 15.6609C-0.246693 17.471 0.224255 19.3422 1.39041 20.827C3.85728 24.0202 8.70132 24.9558 12.1998 22.9422L18.367 19.3829C20.0489 18.427 21.2151 16.8609 21.5515 15.0914C21.843 13.6066 21.5963 12.0812 20.8114 10.7592C21.3496 10.027 21.7085 9.21339 21.8654 8.35916C22.2467 6.52865 21.7757 4.65746 20.5872 3.17272Z" fill="#FF3E00"/>
<path d="M9.17227 21.1321C7.17635 21.5999 5.09072 20.888 3.92457 19.3626C3.20693 18.4677 2.93782 17.3491 3.13965 16.2508C3.1845 16.0677 3.22936 15.905 3.27421 15.7219L3.38634 15.3965L3.7003 15.5999C4.44037 16.088 5.24771 16.4541 6.12232 16.6982L6.34658 16.7592L6.32416 16.9626C6.30173 17.2474 6.39144 17.5525 6.57085 17.7965C6.92966 18.2643 7.55759 18.488 8.1631 18.3457C8.29766 18.305 8.43221 18.2643 8.54434 18.2033L14.6891 14.644C15.0031 14.4609 15.2049 14.1965 15.2722 13.8711C15.3394 13.5457 15.2497 13.1999 15.0479 12.9355C14.6891 12.4677 14.0612 12.2643 13.4557 12.4067C13.3211 12.4474 13.1865 12.488 13.0744 12.5491L10.7197 13.9118C10.3384 14.1355 9.91233 14.2982 9.46381 14.3999C7.46789 14.8677 5.38226 14.1558 4.2161 12.6304C3.5209 11.7355 3.22936 10.6169 3.45362 9.51856C3.65545 8.46093 4.37309 7.505 5.38226 6.93551L11.5494 3.37618C11.9307 3.15246 12.3568 2.98974 12.8053 2.86771C14.8012 2.39991 16.8868 3.11178 18.053 4.6372C18.7706 5.53212 19.0398 6.65076 18.8379 7.74906C18.7931 7.93212 18.7482 8.09483 18.6809 8.27788L18.5688 8.6033L18.2548 8.39991C17.5148 7.91178 16.7074 7.54568 15.8328 7.30161L15.6086 7.24059L15.631 7.0372C15.6534 6.75245 15.5637 6.44737 15.3843 6.2033C15.0255 5.73551 14.3976 5.53212 13.792 5.67449C13.6575 5.71517 13.5229 5.75585 13.4108 5.81686L7.26605 9.37618C6.95209 9.55923 6.75025 9.82364 6.68298 10.1491C6.6157 10.4745 6.7054 10.8203 6.90724 11.0847C7.26605 11.5525 7.89399 11.7558 8.49949 11.6135C8.63405 11.5728 8.7686 11.5321 8.88073 11.4711L11.2355 10.1084C11.6167 9.88466 12.0428 9.72195 12.4913 9.59991C14.4873 9.13212 16.5729 9.84398 17.739 11.3694C18.4567 12.2643 18.7258 13.383 18.524 14.4813C18.3221 15.5389 17.6045 16.4948 16.5953 17.0643L10.4281 20.6236C10.0469 20.8474 9.62079 21.0101 9.17227 21.1321Z" fill="white"/>
</g>
<defs>
<clipPath id="clip0_803_194">
<rect width="22" height="24" fill="white"/>
</clipPath>
</defs>
</svg>
